<?xml version="1.0" standalone="no"?>
<!DOCTYPE svg PUBLIC "-//W3C//DTD SVG 20010904//EN"
 "http://www.w3.org/TR/2001/REC-SVG-20010904/DTD/svg10.dtd">
<svg version="1.0" xmlns="http://www.w3.org/2000/svg"
 width="1024.000000pt" height="1024.000000pt" viewBox="0 0 1024.000000 1024.000000"
 preserveAspectRatio="xMidYMid meet">

<g transform="translate(0.000000,1024.000000) scale(0.100000,-0.100000)"
fill="#000000" stroke="none">
<path d="M0 5120 l0 -5120 5120 0 5120 0 0 5120 0 5120 -5120 0 -5120 0 0
-5120z m7217 2035 c51 -30 73 -68 73 -126 0 -37 -6 -48 -45 -86 -42 -40 -49
-43 -99 -43 -123 0 -190 112 -127 213 44 69 122 86 198 42z m-3818 -158 c46
-30 69 -77 53 -111 -5 -12 -16 -24 -24 -25 -7 -1 -47 -5 -89 -9 -86 -8 -111
-23 -130 -79 -24 -74 33 -159 123 -184 32 -9 210 -10 703 -5 702 8 730 6 875
-40 262 -82 443 -345 427 -619 -10 -172 -53 -270 -169 -388 -53 -54 -85 -76
-160 -111 -148 -69 -155 -70 -797 -62 -311 4 -568 9 -570 12 -7 6 -5 169 2
196 l7 27 543 1 c325 0 565 4 597 10 117 22 207 85 249 176 99 209 26 422
-178 522 l-76 37 -730 5 c-666 5 -734 7 -775 23 -116 46 -229 152 -255 239
-48 161 12 320 147 388 56 28 70 31 126 27 45 -3 74 -12 101 -30z m1438 12
c216 -24 428 -121 612 -279 136 -117 249 -299 307 -495 36 -119 45 -349 20
-475 -37 -180 -158 -403 -289 -532 -154 -152 -296 -239 -451 -278 -108 -27
-128 -26 -149 8 -9 16 -55 71 -101 123 l-85 94 117 7 c64 3 144 14 176 23 140
38 285 142 378 271 118 164 161 297 161 494 0 134 -21 228 -77 337 -38 77
-131 199 -189 250 -93 81 -228 150 -360 185 -78 20 -108 22 -659 25 l-578 4
-5 22 c-2 12 -6 68 -7 125 l-3 102 543 0 c321 0 582 -4 639 -11z m1492 1 c177
-19 345 -79 501 -181 82 -54 273 -244 327 -326 50 -76 95 -182 131 -310 25
-89 27 -112 26 -258 -1 -139 -5 -173 -28 -260 -46 -175 -123 -311 -249 -442
-167 -174 -356 -279 -568 -317 -33 -6 -37 -4 -48 21 -7 16 -57 75 -111 133
-55 58 -100 105 -100 106 0 1 64 4 143 7 110 4 157 10 207 27 335 112 539 463
491 845 -23 180 -79 300 -200 427 -132 139 -284 228 -448 262 -122 26 -326 37
-522 30 l-187 -7 -75 73 c-41 39 -100 93 -131 118 -32 25 -58 49 -58 53 0 13
778 11 899 -1z m35 -449 c139 -37 220 -83 317 -180 142 -142 197 -281 185
-466 -10 -167 -61 -283 -170 -390 -80 -79 -146 -115 -262 -146 -69 -17 -109
-20 -323 -20 -134 1 -246 3 -248 5 -3 2 9 36 26 74 17 39 31 74 31 79 0 4 5
25 11 46 l10 37 188 0 c160 0 199 3 253 20 89 27 137 65 176 137 94 177 72
334 -64 464 -106 100 -196 129 -401 129 l-111 0 -38 53 c-21 28 -62 78 -91
110 -29 32 -53 63 -53 69 0 7 74 9 243 5 204 -4 254 -8 321 -26z m-2464 -621
l0 -230 -22 -4 c-13 -3 -43 -7 -68 -10 -24 -2 -46 -10 -48 -15 -2 -6 -8 -11
-14 -11 -6 0 -19 -11 -30 -25 -11 -14 -30 -25 -44 -25 l-24 0 0 270 0 269 108
4 c59 1 115 4 125 5 16 2 17 -15 17 -228z m450 21 c0 -110 -3 -202 -8 -205 -4
-2 -62 -2 -130 1 l-122 6 0 198 0 199 130 0 130 0 0 -199z m-933 143 c59 -28
113 -84 113 -117 0 -18 -2 -19 -10 -7 -8 13 -10 13 -10 -2 0 -25 -60 -41 -123
-33 -142 18 -224 -70 -182 -195 31 -94 122 -152 272 -176 33 -5 43 -11 45 -28
4 -26 -21 -106 -33 -106 -5 0 -9 -8 -9 -17 0 -15 -2 -16 -10 -3 -7 11 -10 11
-10 2 0 -8 -5 -10 -12 -6 -10 6 -10 5 0 -8 11 -13 5 -15 -45 -13 -157 4 -309
109 -380 261 -24 51 -28 72 -28 149 0 77 4 98 26 145 31 65 89 134 131 156 73
38 182 37 265 -2z m483 -1513 c0 -352 3 -646 6 -655 5 -14 -9 -16 -117 -16
l-124 0 -3 598 c-2 328 -6 621 -9 651 l-6 54 89 -5 c49 -3 103 -2 119 2 17 4
33 8 38 9 4 0 7 -287 7 -638z m2022 611 c45 -25 230 -189 433 -383 49 -47 119
-112 155 -144 36 -32 198 -189 360 -349 162 -160 323 -313 358 -340 34 -27 62
-52 62 -55 0 -3 -84 -7 -186 -8 l-187 -2 -470 470 c-474 475 -567 558 -612
544 -11 -4 -29 -7 -40 -6 -17 0 -16 -3 8 -22 14 -12 30 -33 34 -47 13 -38 0
-713 -13 -717 -6 -2 -50 31 -99 74 -48 43 -103 89 -121 103 -26 19 -33 30 -28
45 4 11 10 175 13 365 l6 345 42 -42 c40 -40 62 -56 48 -33 -16 26 -16 100 0
127 17 29 71 59 126 70 16 3 34 12 40 19 15 18 16 18 71 -14z m-1578 -39 c4
-21 4 -83 0 -138 -3 -55 -5 -113 -4 -130 7 -143 9 -950 2 -957 -4 -4 -63 -11
-130 -15 l-122 -6 0 609 0 609 38 1 c69 2 107 11 152 38 25 14 48 26 52 26 3
0 9 -17 12 -37z m172 -64 c10 -12 78 -69 149 -128 175 -143 371 -324 605 -560
107 -108 259 -256 338 -329 78 -74 142 -137 142 -141 0 -5 -80 -11 -177 -14
l-178 -6 -175 177 c-96 98 -258 259 -360 359 -102 100 -225 224 -275 275 -49
51 -120 120 -157 153 -46 41 -68 67 -68 83 0 13 6 22 15 22 12 0 13 4 6 19 -9
16 -7 17 15 13 19 -3 26 0 31 17 3 11 10 18 16 14 7 -4 8 0 3 12 -5 15 -4 16
9 5 18 -15 20 1 3 19 -11 10 -7 10 17 1 24 -9 28 -9 18 1 -7 7 -13 17 -13 21
0 14 17 8 36 -13z m2655 -179 c46 -24 96 -88 105 -136 3 -19 0 -51 -8 -76 -12
-35 -24 -49 -68 -75 -44 -27 -65 -33 -109 -33 -108 0 -181 60 -188 154 -5 63
26 130 76 163 45 31 135 32 192 3z m-1763 -227 l-3 -195 -77 77 c-80 78 -138
153 -138 177 0 19 41 56 115 106 34 22 67 48 75 57 13 16 15 15 22 -6 5 -12 7
-109 6 -216z m-2054 -1298 c63 -130 126 -270 126 -281 0 -6 -21 -9 -47 -8 -46
2 -48 3 -56 38 l-9 36 -89 0 -90 0 -20 -35 c-19 -32 -25 -35 -65 -35 -24 0
-44 2 -44 4 0 20 175 372 198 399 15 17 17 17 34 -5 10 -13 38 -63 62 -113z
m1694 83 c16 -29 39 -71 50 -93 30 -56 122 -259 122 -268 0 -4 -20 -7 -45 -7
-42 0 -46 2 -59 35 l-15 35 -91 0 -91 0 -15 -35 c-13 -32 -17 -35 -58 -35
l-44 0 42 103 c22 56 60 136 84 178 23 42 42 79 42 83 0 12 32 56 40 56 5 0
22 -24 38 -52z m1678 20 c9 -18 23 -40 30 -49 8 -8 45 -87 83 -175 75 -171 75
-173 4 -159 -26 5 -37 13 -45 36 -10 29 -10 29 -94 29 l-84 0 -24 -38 c-22
-35 -26 -38 -65 -34 -22 2 -41 7 -41 12 0 9 67 160 81 180 5 8 30 57 54 109
65 135 73 143 101 89z m-2913 1 c34 -11 63 -22 65 -23 1 -2 -13 -20 -33 -40
-32 -34 -36 -36 -57 -23 -57 36 -118 31 -118 -8 0 -21 9 -27 71 -46 41 -13 86
-34 105 -51 29 -26 34 -37 34 -74 0 -84 -96 -150 -184 -126 -46 13 -126 59
-126 73 0 5 12 20 27 33 l27 23 34 -23 c39 -27 89 -31 118 -10 28 22 9 44 -62
73 -82 32 -123 69 -130 114 -5 30 -1 41 26 72 51 59 106 68 203 36z m-873 -15
c47 -28 72 -78 67 -137 -7 -82 -67 -127 -167 -127 l-60 0 0 -60 0 -61 -45 3
-45 3 0 202 0 202 109 -3 c85 -2 115 -7 141 -22z m1309 0 c45 -23 51 -28 36
-37 -9 -5 -26 -18 -37 -29 -18 -18 -21 -18 -38 -3 -13 11 -32 15 -66 13 -41
-2 -49 -6 -49 -23 0 -15 18 -27 80 -52 44 -18 89 -43 101 -55 59 -60 14 -159
-85 -189 -35 -10 -49 -10 -79 1 -41 14 -122 67 -121 78 0 4 14 18 31 31 27 22
32 23 42 9 28 -38 112 -52 137 -22 20 24 2 43 -66 70 -105 42 -150 114 -109
173 46 65 134 79 223 35z m292 -54 l52 -81 27 53 c53 105 50 103 108 106 55 4
61 -1 37 -28 -8 -9 -44 -59 -80 -111 l-65 -94 0 -86 0 -86 -41 1 -42 1 6 88
c2 48 1 89 -3 92 -4 2 -33 44 -65 92 -32 49 -67 98 -78 111 l-20 22 56 0 56 0
52 -80z m889 0 l0 -80 85 0 85 0 0 78 0 78 40 -1 39 0 3 -198 3 -197 -42 0
-43 0 0 80 0 80 -86 0 -86 0 3 -82 c2 -46 0 -82 -4 -80 -4 1 -23 2 -42 2 l-34
0 -3 200 -3 200 43 0 42 0 0 -80z m877 55 c88 -52 98 -174 18 -232 l-26 -18
51 -60 51 -60 -53 -6 c-29 -3 -55 -3 -58 1 -3 3 -22 31 -42 63 -32 49 -42 57
-68 57 l-31 0 7 -60 7 -60 -47 0 -46 0 0 139 c0 76 -3 166 -7 201 l-6 63 110
-5 c79 -4 119 -10 140 -23z m1008 7 c3 -8 2 -24 -1 -38 -6 -23 -9 -24 -105
-24 l-99 0 0 -44 c0 -53 6 -56 101 -56 l69 0 0 -41 0 -41 -85 7 -85 7 0 -80 0
-80 -42 3 c-41 3 -43 5 -42 34 0 17 1 106 2 199 l2 167 140 0 c107 0 141 -3
145 -13z m425 -21 c0 -48 -6 -51 -121 -51 l-89 0 0 -45 0 -45 85 0 85 0 0 -40
0 -40 -85 0 -85 0 0 -73 0 -72 -46 3 -45 4 2 199 3 199 148 0 148 0 0 -39z
m230 -161 l0 -200 -45 0 -45 0 0 200 0 200 45 0 45 0 0 -200z"/>
<path d="M3260 3351 c0 -10 -11 -34 -24 -54 l-24 -35 30 -6 c38 -8 98 -8 98 0
0 3 -13 25 -30 49 -16 24 -30 48 -30 54 0 6 -4 11 -10 11 -5 0 -10 -8 -10 -19z"/>
<path d="M4985 3356 c-9 -22 -19 -55 -22 -73 l-6 -33 57 0 56 0 -22 43 c-13
23 -28 56 -34 72 l-12 30 -17 -39z"/>
<path d="M6669 3315 c-28 -55 -19 -67 44 -63 l46 3 -34 53 -33 53 -23 -46z"/>
<path d="M2778 3355 l4 -65 47 0 c57 0 91 21 91 58 0 15 -4 32 -8 39 -11 17
-58 33 -100 33 l-37 0 3 -65z"/>
<path d="M6144 3404 c3 -9 6 -33 6 -55 l0 -39 60 0 c48 0 61 4 70 19 29 56 -5
91 -88 91 -45 0 -53 -3 -48 -16z"/>
</g>
</svg>
