<?xml version="1.0" standalone="no"?>
<!DOCTYPE svg PUBLIC "-//W3C//DTD SVG 20010904//EN"
 "http://www.w3.org/TR/2001/REC-SVG-20010904/DTD/svg10.dtd">
<svg version="1.0" xmlns="http://www.w3.org/2000/svg"
 width="225.000000pt" height="225.000000pt" viewBox="0 0 225.000000 225.000000"
 preserveAspectRatio="xMidYMid meet">

<g transform="translate(0.000000,225.000000) scale(0.100000,-0.100000)"
fill="#000000" stroke="none">
<path d="M975 2239 c-232 -29 -476 -150 -644 -319 -438 -438 -438 -1155 0
-1590 440 -437 1150 -437 1588 1 438 439 438 1149 0 1588 -249 248 -590 364
-944 320z m427 -418 c-1 -7 -65 -127 -142 -268 -77 -141 -140 -262 -140 -270
0 -10 49 -13 261 -13 246 0 260 -1 257 -18 -4 -24 -854 -817 -876 -817 -9 0
-16 5 -15 12 2 7 93 137 204 290 111 152 202 284 203 293 1 13 -32 15 -264 18
-146 1 -272 5 -279 7 -10 4 113 134 375 396 351 352 427 419 416 370z"/>
</g>
</svg>
