<?xml version="1.0" standalone="no"?>
<!DOCTYPE svg PUBLIC "-//W3C//DTD SVG 20010904//EN"
 "http://www.w3.org/TR/2001/REC-SVG-20010904/DTD/svg10.dtd">
<svg version="1.0" xmlns="http://www.w3.org/2000/svg"
 width="512.000000pt" height="512.000000pt" viewBox="0 0 512.000000 512.000000"
 preserveAspectRatio="xMidYMid meet">

<g transform="translate(0.000000,512.000000) scale(0.100000,-0.100000)"
fill="#000000" stroke="none">
<path d="M2399 4260 c-471 -42 -832 -287 -1041 -705 -87 -173 -158 -395 -158
-493 0 -63 40 -122 99 -146 92 -36 154 -10 239 101 177 233 371 327 584 282
127 -27 211 -90 428 -325 265 -286 458 -424 713 -509 169 -56 264 -69 497 -69
181 0 219 3 325 26 481 102 801 406 975 928 54 163 67 229 52 278 -25 81 -80
122 -167 122 -67 0 -96 -20 -178 -123 -159 -199 -291 -277 -471 -277 -172 0
-264 51 -455 254 -194 205 -326 330 -423 399 -286 205 -629 291 -1019 257z"/>
<path d="M1195 2724 c-281 -40 -431 -92 -614 -214 -255 -171 -438 -446 -547
-823 -39 -135 -41 -166 -15 -223 27 -59 72 -88 146 -92 74 -4 107 14 164 91
108 146 229 246 348 286 83 28 207 28 294 1 93 -29 159 -78 299 -224 300 -315
408 -408 584 -504 337 -186 830 -222 1206 -90 370 131 626 398 783 818 103
277 99 398 -17 451 -92 42 -156 15 -249 -103 -162 -209 -322 -298 -506 -285
-158 11 -233 56 -421 252 -309 322 -415 412 -590 504 -114 60 -271 114 -395
137 -86 15 -402 28 -470 18z"/>
</g>
</svg>
