<?xml version="1.0" standalone="no"?>
<!DOCTYPE svg PUBLIC "-//W3C//DTD SVG 20010904//EN"
 "http://www.w3.org/TR/2001/REC-SVG-20010904/DTD/svg10.dtd">
<svg version="1.0" xmlns="http://www.w3.org/2000/svg"
 width="512.000000pt" height="512.000000pt" viewBox="0 0 512.000000 512.000000"
 preserveAspectRatio="xMidYMid meet">

<g transform="translate(0.000000,512.000000) scale(0.100000,-0.100000)"
fill="#000000" stroke="none">
<path d="M432 4471 c10 -27 2123 -3821 2127 -3821 5 0 2044 3661 2109 3786
l22 44 -372 0 -373 -1 -690 -1274 c-379 -701 -692 -1275 -695 -1275 -3 0 -316
574 -695 1275 l-690 1274 -373 1 c-206 0 -372 -4 -370 -9z"/>
<path d="M1392 4471 c10 -27 1164 -2131 1168 -2131 4 0 1157 2104 1168 2132 2
4 -140 8 -316 8 l-319 0 -264 -485 c-145 -266 -266 -484 -269 -484 -3 0 -124
218 -269 484 l-264 485 -320 0 c-175 0 -317 -4 -315 -9z"/>
</g>
</svg>
